<svg width="101" height="100" viewBox="0 0 101 100" fill="none" xmlns="http://www.w3.org/2000/svg">
<g opacity="0.2">
<path style="mix-blend-mode:screen" opacity="0.5" d="M95.0942 33.8183L40.43 1.65416C35.8556 -1.03717 30.06 0.523753 27.5503 5.12449L1.48333 52.9212C-1.02643 57.522 0.666292 63.4874 5.24067 66.1787L21.661 75.84L22.8588 94.9312C23.014 96.4394 24.5895 97.3648 25.9132 96.7293L42.2926 87.9817L59.9019 98.3429C64.4763 101.034 70.2719 99.4733 72.7816 94.8726L98.8486 47.0759C101.358 42.4751 99.6656 36.5097 95.0912 33.8183H95.0942Z" fill="url(#paint0_linear_0_447)"/>
<path style="mix-blend-mode:screen" d="M23.7841 96.9196C23.0783 96.5009 22.6244 95.7892 22.5395 94.9663L21.3505 76.0421L5.08245 66.4687C5.08245 66.4687 5.06779 66.4599 5.06193 66.4569C2.78645 65.1098 1.13185 62.9456 0.399716 60.3597C-0.335349 57.7621 -0.0512772 55.059 1.208 52.7572L27.275 4.96049C28.5313 2.65572 30.6135 1.01281 33.1379 0.333393C35.6594 -0.346029 38.3068 0.0200299 40.591 1.36716L95.2552 33.5313C95.2552 33.5313 95.2698 33.5401 95.2757 33.5431C97.5512 34.8902 99.2058 37.0544 99.9379 39.6403C100.673 42.2379 100.389 44.9409 99.1296 47.2428L73.0627 95.0395C71.8063 97.3443 69.7241 98.9872 67.1997 99.6666C64.6782 100.346 62.0309 99.98 59.7466 98.6328L42.2896 88.3624L26.0625 97.0251C25.3245 97.3794 24.5016 97.3413 23.7899 96.9226C23.7899 96.9226 23.787 96.9226 23.7841 96.9196ZM21.9684 75.6379L23.1779 94.9077C23.2394 95.5022 23.5762 96.0294 24.1004 96.3398C24.1004 96.3398 24.1004 96.3398 24.1033 96.3398C24.6305 96.6502 25.2396 96.6795 25.7755 96.4218L42.2983 87.5981L60.057 98.0471C62.1978 99.3064 64.6754 99.649 67.0328 99.0135C69.3874 98.378 71.329 96.8494 72.5004 94.7027L98.5674 46.906C99.7388 44.7594 100.002 42.2437 99.3171 39.8189C98.6318 37.397 97.0826 35.3734 94.9506 34.1141C94.9447 34.1112 94.936 34.1053 94.9301 34.1024L40.2659 1.93823C38.1252 0.678955 35.6476 0.33632 33.2901 0.971813C30.9356 1.60731 28.994 3.136 27.8226 5.28262L1.7556 53.0794C0.584179 55.226 0.320593 57.7416 1.00587 60.1664C1.69115 62.5883 3.2404 64.612 5.37237 65.8712C5.37823 65.8742 5.38704 65.88 5.39289 65.8829L21.9625 75.6321L21.9684 75.6379Z" fill="url(#paint1_linear_0_447)"/>
<path opacity="0.8" d="M65.3779 45.3715C60.2207 42.4136 52.6592 45.7522 52.2522 45.9601C52.217 45.4886 51.1423 36.9314 45.991 33.9648C37.5743 29.121 27.8077 36.0148 27.4767 46.0655C27.2132 54.0868 33.5447 66.3603 36.4673 74.9058C44.9484 73.1311 60.1036 71.6258 65.0821 67.9212C72.8515 62.1374 75.6952 51.2871 65.3779 45.3715Z" fill="white"/>
</g>
<defs>
<linearGradient id="paint0_linear_0_447" x1="31.3135" y1="0.547173" x2="68.0286" y2="96.8464" gradientUnits="userSpaceOnUse">
<stop offset="0.21" stop-color="white"/>
<stop offset="0.36" stop-color="#FCFCFC"/>
<stop offset="0.47" stop-color="#F3F3F3"/>
<stop offset="0.56" stop-color="#E3E3E3"/>
<stop offset="0.64" stop-color="#CDCDCD"/>
<stop offset="0.72" stop-color="#B1B1B1"/>
<stop offset="0.8" stop-color="#8E8E8E"/>
<stop offset="0.87" stop-color="#656565"/>
<stop offset="0.93" stop-color="#363636"/>
<stop offset="1"/>
</linearGradient>
<linearGradient id="paint1_linear_0_447" x1="50.1673" y1="-0.00339146" x2="50.1673" y2="99.9975" gradientUnits="userSpaceOnUse">
<stop stop-color="white"/>
<stop offset="1"/>
</linearGradient>
</defs>
</svg>
