<svg width="194" height="181" viewBox="0 0 194 181" fill="none" xmlns="http://www.w3.org/2000/svg">
<g opacity="0.5" filter="url(#filter0_f_0_308)">
<path d="M81.6596 97.6583C70.9209 91.3615 67.3004 77.4764 73.5972 66.7377C79.894 55.999 93.7792 52.3786 104.518 58.6754C115.257 64.9722 118.877 78.8573 112.58 89.596C106.283 100.335 92.3983 103.955 81.6596 97.6583ZM101.643 63.5789C93.6008 58.8635 83.2162 61.5712 78.5007 69.6129C73.7853 77.6547 76.4931 88.0394 84.5348 92.7548C92.5766 97.4702 102.961 94.7625 107.677 86.7208C112.392 78.679 109.684 68.2943 101.643 63.5789Z" fill="white"/>
<path d="M101.429 161.374L16.3774 111.502L21.4235 102.897C29.4886 89.1423 47.2386 84.4934 60.993 92.5585L96.1512 113.174C109.906 121.239 114.554 138.989 106.475 152.768L101.429 161.374ZM24.1562 109.474L99.4007 153.595L101.571 149.893C108.055 138.835 104.333 124.561 93.2759 118.078L58.1177 97.462C47.0603 90.9783 32.8108 94.7145 26.327 105.772L24.1562 109.474Z" fill="white"/>
<path d="M52.7654 60.6838L45.0178 56.1409L49.5464 48.4179L43.7603 45.0251L39.2317 52.7481L31.4842 48.2052L28.077 54.0159L35.8245 58.5588L31.2816 66.3064L37.0677 69.6991L41.6107 61.9516L49.3582 66.4945L52.7654 60.6838Z" fill="white"/>
<path d="M170.261 106.524C179.84 96.5065 179.484 80.6204 169.466 71.0417C159.448 61.4631 143.562 61.8192 133.983 71.8371C124.405 81.855 124.761 97.7411 134.779 107.32C144.796 116.898 160.683 116.542 170.261 106.524Z" fill="#EF4852"/>
<path d="M153.067 104.045L138.822 95.6924L140.317 93.1426L148.927 90.8768C151.484 90.1686 153.214 89.6345 154.156 89.2643C155.073 88.8797 155.839 88.4722 156.444 88.0031C157.049 87.5339 157.545 86.9683 157.947 86.2818C158.508 85.3256 158.645 84.4176 158.398 83.5475C158.15 82.6775 157.524 81.9478 156.518 81.3583C155.709 80.8839 154.838 80.571 153.93 80.4339C152.998 80.2824 151.823 80.3187 150.383 80.5282L149.877 77.2332C151.629 76.9426 153.173 76.8929 154.521 77.123C155.869 77.3531 157.16 77.8471 158.411 78.5802C160.372 79.7304 161.64 81.1653 162.227 82.8606C162.8 84.5804 162.583 86.2984 161.577 88.0147C161.016 88.9708 160.327 89.7528 159.481 90.4097C158.634 91.0665 157.602 91.6473 156.359 92.1375C155.116 92.6277 153.245 93.1779 150.697 93.7593L144.973 95.1478L144.887 95.2949L154.866 101.146L153.126 104.113L153.067 104.045Z" fill="white"/>
</g>
<defs>
<filter id="filter0_f_0_308" x="11.3779" y="40.0251" width="170.841" height="126.349" filterUnits="userSpaceOnUse" color-interpolation-filters="sRGB">
<feFlood flood-opacity="0" result="BackgroundImageFix"/>
<feBlend mode="normal" in="SourceGraphic" in2="BackgroundImageFix" result="shape"/>
<feGaussianBlur stdDeviation="2.5" result="effect1_foregroundBlur_0_308"/>
</filter>
</defs>
</svg>
