<svg width="192" height="209" viewBox="0 0 192 209" fill="none" xmlns="http://www.w3.org/2000/svg">
<g opacity="0.2">
<path style="mix-blend-mode:screen" opacity="0.5" d="M187.245 147.212L83.801 207.645C79.322 210.263 73.596 208.595 71.0786 203.946L1.19318 74.8889C-1.3272 70.2363 0.278547 64.2897 4.75465 61.6723L108.199 1.2391C112.678 -1.37832 118.404 0.289184 120.921 4.9388L190.807 133.996C193.327 138.648 191.721 144.595 187.245 147.212Z" fill="url(#paint0_linear_0_333)"/>
<path style="mix-blend-mode:screen" d="M85.0396 207.257C79.7989 210.301 73.1495 208.36 70.2026 202.922L1.58188 76.1976C0.158465 73.5684 -0.191517 70.5128 0.596653 67.5895C1.38482 64.6662 3.21114 62.2429 5.74328 60.7636L106.941 1.64205C106.941 1.64205 106.955 1.63323 106.964 1.63029C109.491 0.162765 112.423 -0.196029 115.228 0.62155C118.043 1.43913 120.378 3.33897 121.798 5.96522L190.419 132.69C193.369 138.137 191.501 145.06 186.258 148.124L85.0602 207.246C85.0602 207.246 85.0455 207.254 85.0367 207.257H85.0396ZM107.235 2.13613C107.235 2.13613 107.22 2.14495 107.214 2.14789L6.01681 61.2694C1.04075 64.1751 -0.729704 70.7451 2.07006 75.9123L70.6908 202.637C73.4847 207.795 79.796 209.639 84.7661 206.749C84.772 206.746 84.7808 206.74 84.7867 206.737L185.984 147.615C190.957 144.71 192.731 138.14 189.931 132.972L121.31 6.25049C119.96 3.75658 117.746 1.95673 115.075 1.18033C112.414 0.406862 109.629 0.745069 107.235 2.13613Z" fill="url(#paint1_linear_0_333)"/>
<path opacity="0.85" d="M72.5696 190.609L72.4314 190.356L13.2451 81.056L13.4892 80.9148L120.245 18.5465L120.383 18.7994L179.57 128.099L179.325 128.24L72.5696 190.609ZM51.2978 150.73L72.6784 190.212L72.6108 190.085L51.3008 150.73H51.2978ZM179.187 127.987L179.067 128.058L140.617 150.521L179.187 127.987ZM14.0068 81.2766L72.7813 189.818L178.805 127.879L120.033 19.3376L14.0098 81.2766H14.0068ZM120.139 18.9406L120.207 19.0671L141.517 58.4226L120.136 18.9406H120.139ZM13.6275 81.1648L13.748 81.0942L52.1889 58.6373L13.6275 81.1648Z" fill="white"/>
<path opacity="0.85" d="M77.3281 173.442L77.2045 173.216L29.8408 85.7498L30.0614 85.6204L30.129 85.7468L30.1526 85.7321L30.2643 85.935L30.4584 85.8233L77.5192 172.731L162.412 123.135L162.521 123.338L162.715 123.223L162.853 123.479L77.3281 173.442Z" fill="white"/>
<path opacity="0.8" d="M115.175 11.9353C114.937 11.4971 115.087 10.9442 115.507 10.6972C115.928 10.4501 116.463 10.606 116.698 11.0442C116.933 11.4824 116.786 12.0353 116.366 12.2823C115.945 12.5294 115.41 12.3735 115.175 11.9353Z" fill="white"/>
<path opacity="0.8" d="M113.887 9.55896C113.649 9.12076 113.799 8.56787 114.219 8.32083C114.64 8.07379 115.175 8.22966 115.41 8.66786C115.645 9.10606 115.498 9.65895 115.078 9.90599C114.657 10.153 114.122 9.99716 113.887 9.55896Z" fill="white"/>
<path opacity="0.8" d="M116.46 14.3115C116.222 13.8733 116.372 13.3204 116.792 13.0734C117.213 12.8264 117.748 12.9822 117.983 13.4204C118.219 13.8586 118.072 14.4115 117.651 14.6586C117.23 14.9056 116.695 14.7497 116.46 14.3115Z" fill="white"/>
<path opacity="0.8" d="M130.5 168.772C129.868 169.14 129.068 168.907 128.712 168.252C128.356 167.596 128.58 166.764 129.212 166.396C129.844 166.025 130.644 166.261 131 166.916C131.356 167.572 131.133 168.405 130.5 168.772Z" fill="white"/>
<path opacity="0.8" d="M127.068 170.778C126.435 171.148 125.635 170.913 125.28 170.257C124.924 169.602 125.147 168.769 125.78 168.402C126.412 168.031 127.212 168.266 127.568 168.922C127.923 169.578 127.7 170.41 127.068 170.778Z" fill="white"/>
<path opacity="0.8" d="M133.932 166.766C133.3 167.134 132.5 166.902 132.144 166.246C131.788 165.59 132.011 164.758 132.644 164.39C133.276 164.023 134.076 164.255 134.432 164.911C134.788 165.567 134.564 166.399 133.932 166.766Z" fill="white"/>
<path opacity="0.8" d="M172.603 136.528L178.702 132.963C178.843 132.881 179.02 132.934 179.099 133.078L183.205 140.66C183.328 140.889 183.131 141.163 182.884 141.104L178.773 140.089C178.626 140.054 178.476 140.139 178.429 140.292L177.129 144.468C177.049 144.718 176.723 144.754 176.596 144.524L172.491 136.943C172.411 136.796 172.461 136.613 172.603 136.531V136.528Z" fill="white"/>
<path opacity="0.8" d="M97.9968 184.806C96.8528 182.692 94.2736 181.942 92.2385 183.13C90.2034 184.318 89.4799 186.997 90.6268 189.112C91.7709 191.226 94.3501 191.976 96.3852 190.788C96.9175 190.476 97.3586 190.062 97.7027 189.579L98.7791 189.347C99.7055 189.194 99.5614 188.929 99.2497 188.35L98.538 187.032C98.5527 186.277 98.3821 185.509 97.9998 184.803L97.9968 184.806Z" fill="white"/>
<path opacity="0.8" d="M102.946 177.571L110.504 173.157C110.793 172.989 111.143 173.237 111.096 173.578L109.819 182.874C109.766 183.265 109.263 183.362 109.078 183.018L107.166 179.486C107.111 179.386 107.019 179.312 106.911 179.286L103.052 178.336C102.699 178.248 102.632 177.757 102.949 177.571H102.946Z" fill="white"/>
<path opacity="0.8" d="M80.9596 190.417C79.8097 190.882 79.648 192.826 79.6421 192.926C79.5568 192.882 77.8716 192.014 76.8923 192.794C75.3483 194.026 75.4748 196.138 76.9776 197.552C77.1393 197.705 77.3393 197.811 77.554 197.858C79.345 198.237 81.139 198.62 82.93 198.999C83.5417 197.229 84.1535 195.455 84.7652 193.685C84.8505 193.438 84.871 193.17 84.821 192.914C84.4211 190.876 82.7595 189.691 80.9596 190.417Z" fill="white"/>
<path opacity="0.8" d="M15.1741 76.0388C18.8822 76.0388 21.8882 72.9169 21.8882 69.0658C21.8882 65.2148 18.8822 62.0929 15.1741 62.0929C11.466 62.0929 8.45996 65.2148 8.45996 69.0658C8.45996 72.9169 11.466 76.0388 15.1741 76.0388Z" fill="white"/>
<path opacity="0.8" d="M94.4447 162.705L84.1897 168.663L58.0183 120.067C56.7066 117.632 57.5448 114.553 59.8888 113.192L61.1328 112.468C63.7649 110.939 67.094 111.915 68.5674 114.65L94.4447 162.702V162.705Z" fill="white"/>
<path opacity="0.8" d="M108.849 154.335L98.594 160.294L83.5746 132.405C82.1394 129.74 83.057 126.37 85.6215 124.879L86.8655 124.155C89.2771 122.756 92.3239 123.65 93.6738 126.152L108.849 154.332V154.335Z" fill="white"/>
<path opacity="0.8" d="M123.501 145.824L113.246 151.782L75.6195 81.9176C74.2226 79.3237 75.1137 76.0446 77.6105 74.5947L78.8545 73.8713C81.3338 72.4302 84.4688 73.3507 85.8569 75.927L123.498 145.824H123.501Z" fill="white"/>
<path opacity="0.8" d="M151.99 129.27L142.376 134.855C142.199 134.957 141.976 134.893 141.876 134.707L114.663 84.1764C113.196 81.4531 114.134 78.0122 116.754 76.4888L117.998 75.7653C120.354 74.3978 123.333 75.2712 124.651 77.7181L152.134 128.749C152.234 128.934 152.169 129.167 151.992 129.27H151.99Z" fill="white"/>
<path opacity="0.8" d="M138.394 137.172L128.139 143.13L121.757 131.278C120.381 128.72 121.26 125.488 123.721 124.055L124.965 123.332C127.48 121.87 130.659 122.803 132.065 125.414L138.397 137.169L138.394 137.172Z" fill="white"/>
</g>
<defs>
<linearGradient id="paint0_linear_0_333" x1="111.344" y1="13.1152" x2="77.5385" y2="214.448" gradientUnits="userSpaceOnUse">
<stop offset="0.09" stop-color="white"/>
<stop offset="0.27" stop-color="#FCFCFC"/>
<stop offset="0.39" stop-color="#F3F3F3"/>
<stop offset="0.48" stop-color="#E4E4E4"/>
<stop offset="0.57" stop-color="#D0D0D0"/>
<stop offset="0.65" stop-color="#B5B5B5"/>
<stop offset="0.72" stop-color="#939393"/>
<stop offset="0.79" stop-color="#6C6C6C"/>
<stop offset="0.86" stop-color="#3E3E3E"/>
<stop offset="0.92" stop-color="#0C0C0C"/>
<stop offset="0.94"/>
</linearGradient>
<linearGradient id="paint1_linear_0_333" x1="85.2581" y1="2.99759" x2="106.763" y2="205.9" gradientUnits="userSpaceOnUse">
<stop stop-color="white"/>
<stop offset="1"/>
</linearGradient>
</defs>
</svg>
