<svg width="150" height="100" viewBox="0 0 150 100" fill="none" xmlns="http://www.w3.org/2000/svg">
<path d="M24.9805 51.875L25.8137 46.4457H20.6041V42.9225C20.6041 41.4371 21.3318 39.9893 23.665 39.9893H26.0334V35.3668C26.0334 35.3668 23.8842 35 21.8293 35C17.5391 35 14.7348 37.6004 14.7348 42.3078V46.4457H9.96582V51.875H14.7348V65H20.6041V51.875H24.9805Z" fill="#38374A"/>
<path d="M40.2852 60.6609H35.9519V49.9836H33V46.5072H35.9518V44.0336C35.9518 41.1023 37.2574 39 41.579 39C42.493 39 43.928 39.1821 43.928 39.1821V42.4101H42.4208C40.8851 42.4101 40.2855 42.8718 40.2855 44.1483V46.5072H43.8705L43.5513 49.9836H40.2854L40.2852 60.6609ZM50.2282 46.2294C50.165 46.2294 50.1 46.2317 50.0358 46.2333C46.0177 46.2333 44.1793 49.2207 44.1793 53.4615C44.1793 58.8037 46.5639 60.9418 50.0672 60.9418C52.0715 60.9418 53.3884 60.1079 54.1888 58.5518V60.6624H58.3104V46.5087H54.1888V48.6854C53.5352 47.285 52.1815 46.246 50.2282 46.2294ZM51.2761 49.5739C52.9638 49.5739 53.9767 50.7374 53.9767 52.7165L53.9806 54.7379C53.9806 56.0718 53.144 57.6323 51.2761 57.6323C48.4046 57.6323 48.4813 54.5676 48.4813 53.5469C48.4813 50.1133 50.0113 49.5739 51.2761 49.5739ZM59.9749 53.5863C59.9749 51.8664 59.8916 46.2386 67.3096 46.2386C70.2873 46.2386 71.5306 47.1745 71.5306 47.1745L70.5313 50.2382C70.5313 50.2382 69.2895 49.5623 67.6715 49.5623C65.5991 49.5623 64.2767 50.7498 64.2767 52.8392L64.279 54.3373C64.279 56.3449 65.5549 57.6851 67.6757 57.6851C69.1498 57.6851 70.5084 57.0028 70.5084 57.0028L71.5052 60.0026C71.5052 60.0026 70.3683 60.9443 67.3304 60.9443C60.2673 60.9443 59.975 55.8951 59.975 53.5863H59.9749ZM95.6971 46.2333C99.7153 46.2333 101.583 49.2207 101.583 53.4615C101.583 58.8037 99.1979 60.9418 95.6947 60.9418C93.6903 60.9418 92.2087 60.108 91.4083 58.5518V60.6624L87.3385 60.6608V39.4303L91.6595 39.0579V48.4936C92.2832 46.8428 94.3326 46.2333 95.6971 46.2333ZM94.4857 49.5739C92.798 49.5739 91.6595 50.7374 91.6595 52.7165L91.6555 54.7379C91.653 56.0718 92.444 57.6323 94.4857 57.6323C97.3572 57.6323 97.2805 54.5676 97.2805 53.5469C97.2805 50.1133 95.7507 49.5739 94.4857 49.5739ZM79.0279 46.245C74.4705 46.245 72.0645 48.7011 72.0645 53.0657V53.8766C72.0645 59.5415 75.4433 61 79.4715 61C83.3869 61 85.1592 59.9175 85.1592 59.9175L84.3506 57.0349C84.3506 57.0349 82.2659 57.9116 79.9896 57.9116C77.6298 57.9116 76.6149 57.3171 76.3548 55.0756H85.5046V52.763C85.5046 48.0285 82.8043 46.2449 79.0278 46.2449L79.0279 46.245ZM79.1378 49.1315C80.7153 49.1315 81.7376 50.0877 81.6815 52.3053H76.3627C76.4549 49.9713 77.5573 49.1315 79.1378 49.1315ZM110.199 46.2256C105.518 46.2256 103.055 48.8325 103.055 53.5041C103.055 59.9139 107.302 60.9457 110.206 60.9457C114.459 60.9457 117.288 58.6829 117.288 53.5623C117.288 48.2327 114.107 46.2256 110.199 46.2256ZM110.14 49.5855C112.198 49.5855 113.013 51.1079 113.013 52.8408V54.3306C113.013 56.4298 111.872 57.644 110.132 57.644C108.504 57.644 107.361 56.5083 107.361 54.3306V52.8408C107.361 50.5183 108.722 49.5855 110.14 49.5855ZM125.896 46.2256C121.216 46.2256 118.752 48.8325 118.752 53.5041C118.752 59.9139 122.999 60.9457 125.904 60.9457C130.156 60.9457 132.985 58.6829 132.985 53.5623C132.985 48.2327 129.804 46.2256 125.896 46.2256ZM125.837 49.5855C127.895 49.5855 128.71 51.1079 128.71 52.8408V54.3306C128.71 56.4298 127.569 57.644 125.829 57.644C124.202 57.644 123.058 56.5083 123.058 54.3306V52.8408C123.058 50.5183 124.419 49.5855 125.837 49.5855ZM134.618 60.6609V39.4303L138.951 39.058V53.288L143.251 46.5074H147.827L143.342 53.5302L148 60.6609H143.41L138.951 53.7369V60.6609H134.618Z" fill="#38374A"/>
</svg>
