<svg width="50" height="50" viewBox="0 0 50 50" fill="none" xmlns="http://www.w3.org/2000/svg">
<path d="M24.9783 12.1459C17.8987 12.1459 12.1465 17.8981 12.1465 24.9777C12.1465 32.0574 17.8987 37.8096 24.9783 37.8096C32.058 37.8096 37.8102 32.0574 37.8102 24.9777C37.8102 17.8981 32.058 12.1459 24.9783 12.1459ZM24.9783 33.2964C20.3766 33.2964 16.6598 29.5574 16.6598 24.9777C16.6598 20.3981 20.3987 16.6592 24.9783 16.6592C29.558 16.6592 33.2969 20.3981 33.2969 24.9777C33.2969 29.5574 29.558 33.2964 24.9783 33.2964Z" fill="url(#paint0_linear_0_379)"/>
<path d="M41.3048 11.637C41.3048 13.2963 39.9552 14.6459 38.296 14.6459C36.6367 14.6459 35.2871 13.2963 35.2871 11.637C35.2871 9.97773 36.6367 8.62817 38.296 8.62817C39.9552 8.62817 41.3048 9.97773 41.3048 11.637Z" fill="url(#paint1_linear_0_379)"/>
<path d="M24.9779 4.49115C31.6593 4.49115 32.4336 4.51326 35.0664 4.646C37.5 4.75662 38.8274 5.15485 39.7124 5.50883C40.885 5.95131 41.7036 6.50443 42.5885 7.36726C43.4735 8.25222 44.0044 9.07078 44.4469 10.2433C44.7788 11.1283 45.1991 12.4557 45.3097 14.8894C45.4204 17.5221 45.4646 18.3186 45.4646 24.9779C45.4646 31.6372 45.4425 32.4336 45.3097 35.0664C45.1991 37.5 44.8009 38.8274 44.4469 39.7124C44.0044 40.885 43.4513 41.7036 42.5885 42.5885C41.7257 43.4735 40.885 44.0044 39.7124 44.4469C38.8274 44.7788 37.5 45.1991 35.0664 45.3097C32.4336 45.4204 31.6372 45.4646 24.9779 45.4646C18.3186 45.4646 17.5221 45.4425 14.8894 45.3097C12.4558 45.1991 11.1283 44.8009 10.2434 44.4469C9.0708 44.0044 8.25222 43.4513 7.36726 42.5885C6.4823 41.7036 5.95133 40.885 5.50885 39.7124C5.17699 38.8274 4.75664 37.5 4.64602 35.0664C4.5354 32.4336 4.49115 31.6372 4.49115 24.9779C4.49115 18.3186 4.51328 17.5221 4.64602 14.8894C4.75664 12.4557 5.15487 11.1283 5.50885 10.2433C5.95133 9.07078 6.50443 8.25222 7.36726 7.36726C8.25222 6.48231 9.0708 5.95131 10.2434 5.50883C11.1283 5.17697 12.4558 4.75662 14.8894 4.646C17.5221 4.53538 18.3186 4.49115 24.9779 4.49115ZM24.9779 0C18.1859 0 17.3451 0.0221064 14.6681 0.15485C12.0133 0.265469 10.1991 0.707945 8.6062 1.32741C6.96903 1.96901 5.57522 2.80972 4.18142 4.20353C2.78761 5.59733 1.9469 6.99114 1.30531 8.62831C0.685841 10.2212 0.265486 12.0354 0.154867 14.6903C0.0221232 17.3451 0 18.208 0 25C0 31.7921 0.0221232 32.6327 0.154867 35.3097C0.265486 37.9646 0.707965 39.7788 1.30531 41.3717C1.9469 43.0089 2.78761 44.4027 4.18142 45.7965C5.57522 47.1903 6.96903 48.031 8.6062 48.6726C10.1991 49.2921 12.0133 49.7124 14.6681 49.8451C17.323 49.9558 18.1859 50 24.9779 50C31.7699 50 32.6106 49.9779 35.2876 49.8451C37.9425 49.7345 39.7567 49.2921 41.3496 48.6726C42.9867 48.031 44.3805 47.1903 45.7743 45.7965C47.1682 44.4027 48.0089 43.0089 48.6505 41.3717C49.2699 39.7788 49.6903 37.9646 49.8009 35.3097C49.9115 32.6549 49.9558 31.7921 49.9558 25C49.9558 18.208 49.9336 17.3673 49.8009 14.6903C49.6903 12.0354 49.2478 10.2212 48.6505 8.62831C48.0089 6.99114 47.1682 5.59733 45.7743 4.20353C44.3805 2.80972 42.9867 1.96901 41.3496 1.32741C39.7567 0.707945 37.9425 0.287593 35.2876 0.15485C32.6328 0.0442302 31.7699 0 24.9779 0Z" fill="url(#paint2_linear_0_379)"/>
<defs>
<linearGradient id="paint0_linear_0_379" x1="7.65533" y1="12.1459" x2="67.0669" y2="37.8096" gradientUnits="userSpaceOnUse">
<stop stop-color="#8A6DF9"/>
<stop offset="1" stop-color="#B6A3FF"/>
</linearGradient>
<linearGradient id="paint1_linear_0_379" x1="34.234" y1="8.62817" x2="48.165" y2="14.6459" gradientUnits="userSpaceOnUse">
<stop stop-color="#8A6DF9"/>
<stop offset="1" stop-color="#B6A3FF"/>
</linearGradient>
<linearGradient id="paint2_linear_0_379" x1="-8.74226" y1="-2.55182e-08" x2="106.938" y2="49.9255" gradientUnits="userSpaceOnUse">
<stop stop-color="#8A6DF9"/>
<stop offset="1" stop-color="#B6A3FF"/>
</linearGradient>
</defs>
</svg>
