<svg width="151" height="100" viewBox="0 0 151 100" fill="none" xmlns="http://www.w3.org/2000/svg">
<path d="M19.0043 45.6094C16.023 45.6094 13.6184 48.0141 13.6184 50.9953C13.6184 53.9766 16.023 56.3813 19.0043 56.3813C21.9855 56.3813 24.3902 53.9766 24.3902 50.9953C24.3902 48.0141 21.9855 45.6094 19.0043 45.6094ZM19.0043 54.4969C17.0777 54.4969 15.5027 52.9266 15.5027 50.9953C15.5027 49.0641 17.073 47.4938 19.0043 47.4938C20.9355 47.4938 22.5059 49.0641 22.5059 50.9953C22.5059 52.9266 20.9309 54.4969 19.0043 54.4969ZM25.8668 45.3891C25.8668 46.0875 25.3043 46.6453 24.6105 46.6453C23.9121 46.6453 23.3543 46.0828 23.3543 45.3891C23.3543 44.6953 23.9168 44.1328 24.6105 44.1328C25.3043 44.1328 25.8668 44.6953 25.8668 45.3891ZM29.434 46.6641C29.3543 44.9813 28.9699 43.4906 27.7371 42.2625C26.509 41.0344 25.0184 40.65 23.3355 40.5656C21.6012 40.4672 16.4027 40.4672 14.6684 40.5656C12.9902 40.6453 11.4996 41.0297 10.2668 42.2578C9.03398 43.486 8.6543 44.9766 8.56992 46.6594C8.47148 48.3938 8.47148 53.5922 8.56992 55.3266C8.64961 57.0094 9.03398 58.5 10.2668 59.7281C11.4996 60.9563 12.9855 61.3406 14.6684 61.425C16.4027 61.5235 21.6012 61.5235 23.3355 61.425C25.0184 61.3453 26.509 60.961 27.7371 59.7281C28.9652 58.5 29.3496 57.0094 29.434 55.3266C29.5324 53.5922 29.5324 48.3985 29.434 46.6641ZM27.1934 57.1875C26.8277 58.1063 26.1199 58.8141 25.1965 59.1844C23.8137 59.7328 20.5324 59.6063 19.0043 59.6063C17.4762 59.6063 14.1902 59.7281 12.8121 59.1844C11.8934 58.8188 11.1855 58.111 10.8152 57.1875C10.2668 55.8047 10.3934 52.5235 10.3934 50.9953C10.3934 49.4672 10.2715 46.1813 10.8152 44.8031C11.1809 43.8844 11.8887 43.1766 12.8121 42.8063C14.1949 42.2578 17.4762 42.3844 19.0043 42.3844C20.5324 42.3844 23.8184 42.2625 25.1965 42.8063C26.1152 43.1719 26.823 43.8797 27.1934 44.8031C27.7418 46.186 27.6152 49.4672 27.6152 50.9953C27.6152 52.5235 27.7418 55.8094 27.1934 57.1875Z" fill="#38374A"/>
<path d="M46.2522 39.1005C44.1637 39.9764 41.8672 42.4484 41.1424 45.5576C40.2228 49.4936 44.0461 51.1557 44.3585 50.6134C44.7261 49.9702 43.6712 49.7543 43.4558 47.7135C43.1786 45.0743 44.3997 42.1257 45.9405 40.8319C46.2279 40.5954 46.214 40.9292 46.214 41.5444C46.214 42.654 46.1522 52.5814 46.1522 54.6539C46.1522 57.4596 46.0375 58.343 45.8258 59.2153C45.6177 60.1024 45.2811 60.7007 45.5347 60.9335C45.8221 61.1907 47.0432 60.5784 47.7511 59.5882C48.5979 58.4019 48.8964 56.9762 48.9515 55.429C49.014 53.5657 49.0103 50.6031 49.014 48.9166C49.014 47.3657 49.0382 42.8315 48.9897 40.1018C48.9757 39.4343 47.1233 38.7351 46.2522 39.1005ZM142.539 53.8295C142.241 53.8295 142.099 54.1426 141.984 54.668C141.589 56.5004 141.173 56.9137 140.635 56.9137C140.035 56.9137 139.497 56.0067 139.355 54.1913C139.247 52.7656 139.264 50.1368 139.403 47.5219C139.431 46.9863 139.285 46.4551 137.848 45.9298C137.228 45.7073 136.329 45.3735 135.882 46.4581C134.615 49.515 134.123 51.9485 134.005 52.9329C134.002 52.9844 133.939 52.9918 133.928 52.8739C133.856 52.0841 133.689 50.6481 133.669 47.6295C133.661 47.046 133.54 46.5413 132.888 46.1309C132.468 45.8671 131.191 45.3941 130.73 45.9541C130.334 46.4131 129.873 47.6442 129.391 49.1046C129.002 50.2937 128.732 51.1005 128.732 51.1005C128.732 51.1005 128.734 47.894 128.742 46.6769C128.742 46.2178 128.429 46.0653 128.336 46.0373C127.909 45.9121 127.066 45.7073 126.712 45.7073C126.272 45.7073 126.168 45.9541 126.168 46.3122C126.168 46.3571 126.095 50.5295 126.095 53.4472V53.8575C125.855 55.2 125.065 57.022 124.208 57.022C123.351 57.022 122.945 56.2602 122.945 52.7833C122.945 50.7557 123.007 49.873 123.035 48.4054C123.052 47.5602 123.087 46.9104 123.084 46.7609C123.076 46.3122 122.296 46.0823 121.935 45.999C121.571 45.9121 121.255 45.8841 121.006 45.8944C120.659 45.9157 120.412 46.1449 120.412 46.4654V46.9517C119.965 46.2429 119.239 45.7485 118.754 45.6063C117.457 45.2203 116.099 45.5643 115.076 46.9966C114.265 48.1379 113.775 49.4273 113.585 51.281C113.442 52.6374 113.488 54.0108 113.741 55.1719C113.435 56.4827 112.873 57.022 112.259 57.022C111.364 57.022 110.719 55.561 110.792 53.033C110.844 51.3716 111.174 50.2068 111.537 48.5166C111.694 47.7967 111.565 47.4218 111.25 47.0563C110.962 46.7291 110.344 46.559 109.46 46.7638C108.831 46.9134 107.927 47.0732 107.104 47.1955C107.104 47.1955 107.152 46.9966 107.194 46.6459C107.406 44.8062 105.411 44.9557 104.776 45.5437C104.394 45.8944 104.134 46.3085 104.037 47.0526C103.881 48.2352 104.842 48.7914 104.842 48.7914C104.527 50.2377 103.756 52.129 102.955 53.4958C102.528 54.2296 102.201 54.7689 101.779 55.3458C101.775 55.1336 101.775 54.9178 101.775 54.7063C101.768 51.6634 101.806 49.2681 101.823 48.4054C101.841 47.5602 101.876 46.9274 101.876 46.7778C101.868 46.4506 101.678 46.3224 101.275 46.1692C100.921 46.0307 100.502 45.9298 100.068 45.8944C99.5233 45.8531 99.1903 46.1449 99.2006 46.489V46.9517C98.7499 46.2429 98.0244 45.7485 97.5458 45.6063C96.2447 45.2203 94.8884 45.5643 93.8651 46.9966C93.0566 48.1379 92.5221 49.7338 92.3692 51.2633C92.231 52.6964 92.2552 53.9061 92.4493 54.9288C92.2413 55.9507 91.6481 57.022 90.9754 57.022C90.1183 57.022 89.6287 56.2602 89.6287 52.7833C89.6287 50.7557 89.6912 49.873 89.7228 48.4054C89.7397 47.5602 89.7713 46.9104 89.7676 46.7609C89.7639 46.3122 88.984 46.0823 88.6194 45.999C88.2415 45.9091 87.9115 45.8812 87.6615 45.8944C87.3285 45.9224 87.0963 46.2178 87.0963 46.444V46.9517C86.6456 46.2429 85.9201 45.7485 85.4378 45.6063C84.1404 45.2203 82.7944 45.5717 81.7638 46.9966C81.0911 47.9257 80.5464 48.958 80.2656 51.2464C80.1891 51.9073 80.1509 52.5254 80.1546 53.1031C79.887 54.7439 78.7042 56.6359 77.7397 56.6359C77.1708 56.6359 76.6297 55.5367 76.6297 53.19C76.6297 50.0675 76.8238 45.6166 76.8584 45.1856C76.8584 45.1856 78.0794 45.1642 78.319 45.1613C78.9262 45.1576 79.4812 45.1716 80.2899 45.1296C80.6993 45.109 81.0911 43.645 80.6677 43.4608C80.4803 43.3805 79.1343 43.3075 78.5998 43.2973C78.1492 43.2869 76.9032 43.1934 76.9032 43.1934C76.9032 43.1934 77.015 40.2411 77.0392 39.9316C77.0598 39.6671 76.7268 39.5353 76.5327 39.4549C76.0637 39.2538 75.644 39.1595 75.1515 39.0585C74.4612 38.9164 74.1524 39.0556 74.0936 39.6354C74.0032 40.5159 73.9547 43.0961 73.9547 43.0961C73.4482 43.0961 71.731 42.9944 71.2274 42.9944C70.7599 42.9944 70.2526 45.0117 70.9018 45.036C71.6479 45.064 72.9417 45.0921 73.8018 45.1156C73.8018 45.1156 73.7635 49.6402 73.7635 51.0342V51.4652C73.2887 53.9371 71.6266 55.2729 71.6266 55.2729C71.9838 53.635 71.2553 52.4075 69.9373 51.3716C69.4514 50.9856 68.4943 50.2583 67.4218 49.4693C67.4218 49.4693 68.0429 48.8541 68.5942 47.6229C68.9831 46.7498 69.0008 45.7455 68.0429 45.526C66.461 45.1613 65.1598 46.3261 64.768 47.5706C64.4695 48.5306 64.6261 49.2467 65.2186 49.9872L65.3539 50.1545C65.0003 50.8426 64.5077 51.7709 64.0946 52.4908C62.9398 54.4904 62.0686 56.0693 61.4129 56.0693C60.8859 56.0693 60.8925 54.4661 60.8925 52.9638C60.8925 51.67 60.9895 49.7197 61.066 47.7032C61.0903 47.0386 60.7572 46.6562 60.1993 46.3122C59.8589 46.1036 59.137 45.6933 58.7173 45.6933C58.0932 45.6933 56.2818 45.7765 54.572 50.7314C54.3566 51.3576 53.9332 52.4945 53.9332 52.4945L53.9714 46.5346C53.9714 46.3954 53.8987 46.2635 53.7288 46.1692C53.4407 46.013 52.6673 45.6933 51.9873 45.6933C51.6573 45.6933 51.4941 45.8465 51.4941 46.1486L51.4389 55.4674C51.4389 56.1769 51.4559 57.0043 51.5257 57.3661C51.5948 57.7278 51.7095 58.0233 51.8484 58.2001C51.9873 58.371 52.1498 58.5029 52.4137 58.5619C52.66 58.6142 54.0163 58.7844 54.0861 58.2664C54.1728 57.6438 54.1758 56.9734 54.8874 54.4595C55.9974 50.5508 57.4411 48.6455 58.1211 47.9669C58.2424 47.8491 58.3777 47.8417 58.3703 48.037C58.3394 48.8953 58.2388 51.0342 58.1696 52.8526C57.9859 57.7242 58.8665 58.6245 60.1331 58.6245C61.0976 58.6245 62.4576 57.6615 63.9182 55.2279C64.8305 53.708 65.7119 52.2233 66.35 51.1491C66.7873 51.5588 67.2865 52.0008 67.7827 52.4738C68.9383 53.5687 69.3161 54.612 69.0632 55.6C68.8721 56.3574 68.1473 57.1362 66.8601 56.3788C66.4852 56.1593 66.3257 55.9891 65.9478 55.7385C65.7464 55.603 65.434 55.5647 65.2502 55.7039C64.7643 56.0693 64.4901 56.5313 64.3306 57.1053C64.1814 57.6652 64.7401 57.957 65.3193 58.2141C65.8155 58.4403 66.8844 58.6385 67.5673 58.6628C70.2284 58.7534 72.3587 57.3764 73.84 53.8295C74.1076 56.8931 75.2345 58.6282 77.195 58.6282C78.5094 58.6282 79.8246 56.9277 80.4009 55.2552C80.5633 55.9367 80.8096 56.5276 81.1257 57.0323C82.6386 59.4313 85.5731 58.917 87.044 56.879C87.502 56.2462 87.5719 56.02 87.5719 56.02C87.7865 57.9437 89.3339 58.6208 90.219 58.6208C91.2143 58.6208 92.2347 58.1486 92.9521 56.5276C93.0389 56.7052 93.1293 56.8724 93.2337 57.0323C94.7429 59.4313 97.6774 58.917 99.1521 56.879C99.2183 56.7781 99.2807 56.6949 99.3322 56.6146L99.3778 57.8803C99.3778 57.8803 98.5346 58.6525 98.0178 59.1285C95.7456 61.2187 94.0174 62.8043 93.8895 64.647C93.7299 67.001 95.6309 67.8741 97.074 67.9882C98.6008 68.1106 99.9122 67.2654 100.716 66.0763C101.424 65.033 101.89 62.7903 101.855 60.5718C101.841 59.6818 101.82 58.5553 101.799 57.3418C102.601 56.4171 103.502 55.2412 104.329 53.8649C105.234 52.3692 106.198 50.3556 106.691 48.7878C106.691 48.7878 107.534 48.7951 108.429 48.7391C108.717 48.7214 108.8 48.7811 108.745 48.9896C108.682 49.2431 107.614 53.3779 108.589 56.132C109.258 58.0159 110.76 58.6245 111.656 58.6245C112.699 58.6245 113.699 57.8317 114.233 56.6566C114.299 56.7855 114.365 56.9137 114.442 57.0323C115.951 59.4313 118.875 58.9133 120.36 56.879C120.697 56.4171 120.884 56.02 120.884 56.02C121.203 58.013 122.751 58.6282 123.635 58.6282C124.561 58.6282 125.435 58.2495 126.147 56.566C126.175 57.3071 126.22 57.9121 126.296 58.1029C126.341 58.2215 126.605 58.3674 126.792 58.4403C127.638 58.7534 128.499 58.6039 128.815 58.5376C129.037 58.4926 129.21 58.3188 129.231 57.8597C129.293 56.6566 129.255 54.6363 129.619 53.1311C130.233 50.6135 130.802 49.6365 131.073 49.1532C131.223 48.8813 131.396 48.8364 131.399 49.1215C131.409 49.7021 131.441 51.4062 131.68 53.7013C131.851 55.3841 132.083 56.3817 132.263 56.6986C132.769 57.5989 133.401 57.6409 133.911 57.6409C134.237 57.6409 134.917 57.5503 134.858 56.9763C134.827 56.6986 134.879 54.9701 135.479 52.4879C135.875 50.864 136.53 49.4 136.766 48.8643C136.857 48.6662 136.895 48.8194 136.895 48.8504C136.843 49.9666 136.732 53.621 137.182 55.6169C137.801 58.3261 139.58 58.6282 140.201 58.6282C141.522 58.6282 142.609 57.6195 142.973 54.9635C143.063 54.3232 142.931 53.8295 142.539 53.8295ZM87.0683 52.1886C86.9955 53.593 86.7213 54.7689 86.2846 55.6206C85.4863 57.1678 83.9154 57.6548 83.2244 55.4261C82.7216 53.8162 82.8914 51.6184 83.1031 50.4322C83.4082 48.6728 84.1822 47.4283 85.3893 47.5425C86.6243 47.6648 87.2278 49.2607 87.0683 52.1886ZM99.1728 52.2093C99.1036 53.534 98.7604 54.8691 98.3855 55.6206C97.6121 57.1782 95.9949 57.6652 95.3252 55.4261C94.868 53.8921 94.9752 51.9138 95.2039 50.6687C95.4994 49.0485 96.2102 47.5425 97.4908 47.5425C98.7361 47.5425 99.3499 48.9129 99.1728 52.2093ZM99.4888 61.2636C99.4712 63.6876 99.0934 65.8088 98.281 66.4277C97.1225 67.3037 95.5648 66.6429 95.8875 64.8768C96.172 63.3119 97.5217 61.716 99.4925 59.765C99.4925 59.765 99.4993 60.21 99.4888 61.2636ZM120.388 52.2233C120.318 53.6806 119.996 54.8175 119.597 55.6206C118.823 57.1782 117.22 57.6615 116.537 55.4261C116.166 54.2053 116.148 52.1673 116.415 50.4676C116.686 48.7354 117.446 47.4283 118.702 47.5425C119.943 47.6611 120.523 49.2607 120.388 52.2233Z" fill="#38374A"/>
</svg>
