<svg width="50" height="50" viewBox="0 0 50 50" fill="none" xmlns="http://www.w3.org/2000/svg">
<path d="M46.7484 9.62896L40.1468 40.7618C39.6488 42.959 38.35 43.5059 36.5043 42.4708L26.4457 35.0587L21.5922 39.7266C21.055 40.2637 20.6058 40.7129 19.5707 40.7129L20.2933 30.4688L38.9359 13.6231C39.7465 12.9004 38.7601 12.5001 37.6761 13.2227L14.6293 27.7344L4.70739 24.629C2.54919 23.9551 2.51012 22.4708 5.15661 21.4356L43.9652 6.48443C45.7621 5.81061 47.3343 6.88482 46.7484 9.62896V9.62896Z" fill="url(#paint0_linear_0_388)"/>
<path d="M46.7484 9.62896L40.1468 40.7618C39.6488 42.959 38.35 43.5059 36.5043 42.4708L26.4457 35.0587L21.5922 39.7266C21.055 40.2637 20.6058 40.7129 19.5707 40.7129L20.2933 30.4688L38.9359 13.6231C39.7465 12.9004 38.7601 12.5001 37.6761 13.2227L14.6293 27.7344L4.70739 24.629C2.54919 23.9551 2.51012 22.4708 5.15661 21.4356L43.9652 6.48443C45.7621 5.81061 47.3343 6.88482 46.7484 9.62896V9.62896Z" fill="url(#paint1_linear_0_388)"/>
<defs>
<linearGradient id="paint0_linear_0_388" x1="-4.52861" y1="6.28906" x2="90.4438" y2="55.2072" gradientUnits="userSpaceOnUse">
<stop stop-color="#8A6DF9"/>
<stop offset="1" stop-color="#B6A3FF"/>
</linearGradient>
<linearGradient id="paint1_linear_0_388" x1="-4.52861" y1="6.28906" x2="90.4438" y2="55.2072" gradientUnits="userSpaceOnUse">
<stop stop-color="#8A6DF9"/>
<stop offset="1" stop-color="#B6A3FF"/>
</linearGradient>
</defs>
</svg>
