<svg width="185" height="40" viewBox="0 0 185 40" fill="none" xmlns="http://www.w3.org/2000/svg">
<path d="M37.7985 7.70311L32.5173 32.6094C32.1188 34.3672 31.0798 34.8047 29.6032 33.9765L21.5563 28.0469L17.6735 31.7812C17.2438 32.2109 16.8845 32.5703 16.0563 32.5703L16.6345 24.375L31.5485 10.8984C32.197 10.3203 31.4079 9.99998 30.5407 10.5781L12.1032 22.1875L4.16572 19.7031C2.43915 19.164 2.4079 17.9765 4.52509 17.1484L35.572 5.18749C37.0095 4.64842 38.2673 5.5078 37.7985 7.70311Z" fill="#38374A"/>
<path d="M37.7985 7.70317L32.5173 32.6094C32.1188 34.3672 31.0798 34.8047 29.6032 33.9766L21.5563 28.0469L17.6735 31.7813C17.2438 32.211 16.8845 32.5704 16.0563 32.5704L16.6345 24.375L31.5485 10.8985C32.197 10.3204 31.4079 10 30.5407 10.5782L12.1032 22.1875L4.16572 19.7032C2.43915 19.1641 2.4079 17.9766 4.52509 17.1485L35.572 5.18755C37.0095 4.64848 38.2673 5.50786 37.7985 7.70317Z" fill="#38374A"/>
<path d="M55.7904 7.5H71.2404V11.46H65.5704V28.5H61.4304V11.46H55.7904V7.5ZM85.227 22.59H73.917C74.417 24.47 75.827 25.41 78.147 25.41C79.627 25.41 80.747 24.91 81.507 23.91L84.627 25.71C83.147 27.85 80.967 28.92 78.087 28.92C75.607 28.92 73.617 28.17 72.117 26.67C70.617 25.17 69.867 23.28 69.867 21C69.867 18.76 70.607 16.88 72.087 15.36C73.547 13.84 75.447 13.08 77.787 13.08C80.007 13.08 81.817 13.84 83.217 15.36C84.657 16.88 85.377 18.76 85.377 21C85.377 21.42 85.327 21.95 85.227 22.59ZM73.857 19.59H81.507C81.287 18.61 80.837 17.86 80.157 17.34C79.497 16.82 78.707 16.56 77.787 16.56C76.747 16.56 75.887 16.83 75.207 17.37C74.527 17.89 74.077 18.63 73.857 19.59ZM91.9486 28.5H88.0786V6.6H91.9486V28.5ZM110.071 22.59H98.7607C99.2607 24.47 100.671 25.41 102.991 25.41C104.471 25.41 105.591 24.91 106.351 23.91L109.471 25.71C107.991 27.85 105.811 28.92 102.931 28.92C100.451 28.92 98.4607 28.17 96.9607 26.67C95.4607 25.17 94.7107 23.28 94.7107 21C94.7107 18.76 95.4507 16.88 96.9307 15.36C98.3907 13.84 100.291 13.08 102.631 13.08C104.851 13.08 106.661 13.84 108.061 15.36C109.501 16.88 110.221 18.76 110.221 21C110.221 21.42 110.171 21.95 110.071 22.59ZM98.7007 19.59H106.351C106.131 18.61 105.681 17.86 105.001 17.34C104.341 16.82 103.551 16.56 102.631 16.56C101.591 16.56 100.731 16.83 100.051 17.37C99.3707 17.89 98.9207 18.63 98.7007 19.59ZM124.295 15.36V13.5H128.075V27.78C128.075 30.08 127.305 31.85 125.765 33.09C124.245 34.31 122.405 34.92 120.245 34.92C116.845 34.92 114.475 33.7 113.135 31.26L116.435 29.37C117.175 30.77 118.485 31.47 120.365 31.47C121.585 31.47 122.545 31.15 123.245 30.51C123.945 29.87 124.295 28.96 124.295 27.78V26.16C123.155 27.68 121.555 28.44 119.495 28.44C117.375 28.44 115.595 27.7 114.155 26.22C112.735 24.7 112.025 22.88 112.025 20.76C112.025 18.64 112.745 16.83 114.185 15.33C115.625 13.83 117.395 13.08 119.495 13.08C121.555 13.08 123.155 13.84 124.295 15.36ZM123.095 23.73C123.895 22.95 124.295 21.96 124.295 20.76C124.295 19.56 123.895 18.59 123.095 17.85C122.315 17.07 121.315 16.68 120.095 16.68C118.895 16.68 117.885 17.07 117.065 17.85C116.285 18.59 115.895 19.56 115.895 20.76C115.895 21.96 116.285 22.95 117.065 23.73C117.865 24.49 118.875 24.87 120.095 24.87C121.315 24.87 122.315 24.49 123.095 23.73ZM135.454 13.5V16.08C135.794 15.14 136.374 14.43 137.194 13.95C138.014 13.45 138.954 13.2 140.014 13.2V17.52C138.834 17.36 137.774 17.6 136.834 18.24C135.914 18.86 135.454 19.89 135.454 21.33V28.5H131.584V13.5H135.454ZM153.121 15.27V13.5H156.991V28.5H153.121V26.73C151.961 28.19 150.331 28.92 148.231 28.92C146.231 28.92 144.511 28.16 143.071 26.64C141.651 25.1 140.941 23.22 140.941 21C140.941 18.8 141.651 16.93 143.071 15.39C144.511 13.85 146.231 13.08 148.231 13.08C150.331 13.08 151.961 13.81 153.121 15.27ZM145.981 24.06C146.761 24.84 147.751 25.23 148.951 25.23C150.151 25.23 151.141 24.84 151.921 24.06C152.721 23.26 153.121 22.24 153.121 21C153.121 19.76 152.721 18.75 151.921 17.97C151.141 17.17 150.151 16.77 148.951 16.77C147.751 16.77 146.761 17.17 145.981 17.97C145.201 18.75 144.811 19.76 144.811 21C144.811 22.24 145.201 23.26 145.981 24.06ZM177.09 13.08C178.81 13.08 180.18 13.64 181.2 14.76C182.24 15.88 182.76 17.38 182.76 19.26V28.5H178.89V19.53C178.89 18.63 178.67 17.93 178.23 17.43C177.79 16.93 177.17 16.68 176.37 16.68C175.49 16.68 174.8 16.97 174.3 17.55C173.82 18.13 173.58 18.97 173.58 20.07V28.5H169.71V19.53C169.71 18.63 169.49 17.93 169.05 17.43C168.61 16.93 167.99 16.68 167.19 16.68C166.33 16.68 165.64 16.98 165.12 17.58C164.62 18.16 164.37 18.99 164.37 20.07V28.5H160.5V13.5H164.37V15.09C165.27 13.75 166.66 13.08 168.54 13.08C170.4 13.08 171.76 13.8 172.62 15.24C173.6 13.8 175.09 13.08 177.09 13.08Z" fill="#38374A"/>
</svg>
