<svg width="151" height="100" viewBox="0 0 151 100" fill="none" xmlns="http://www.w3.org/2000/svg">
<path d="M27.2187 47.1315V46.0788C26.8532 46.0209 26.4841 45.9892 26.1141 45.9838C22.5324 45.9763 19.3613 48.2973 18.2857 51.7138C17.2102 55.1303 18.4798 58.8493 21.4199 60.895C19.2175 58.5379 18.606 55.1066 19.8585 52.1338C21.111 49.161 23.9936 47.2019 27.2187 47.1315Z" fill="#38374A"/>
<path d="M27.4167 59.0569C29.4193 59.0543 31.0654 57.4766 31.1531 55.4759V37.6222H34.4149C34.3483 37.2492 34.3165 36.8708 34.32 36.4918H29.8587V54.3282C29.7845 56.3391 28.1345 57.9319 26.1223 57.9352C25.521 57.9301 24.9295 57.7822 24.3965 57.5037C24.7419 57.9823 25.1955 58.3724 25.7204 58.6424C26.2453 58.9123 26.8265 59.0543 27.4167 59.0569ZM40.5071 43.6799V42.6875C39.3066 42.6879 38.1328 42.3337 37.1331 41.6693C38.0095 42.6881 39.1939 43.3939 40.5071 43.6799Z" fill="#38374A"/>
<path d="M37.1332 41.6693C36.1484 40.5478 35.6055 39.1061 35.6059 37.6136H34.4151C34.5689 38.4388 34.8892 39.224 35.3565 39.9213C35.8239 40.6186 36.4284 41.2134 37.1332 41.6693ZM26.1139 50.4451C24.3953 50.4539 22.9034 51.6312 22.4952 53.3006C22.087 54.97 22.8674 56.7029 24.388 57.5037C23.5641 56.3662 23.4477 54.8627 24.0867 53.612C24.7258 52.3611 26.0123 51.5745 27.4169 51.5755C27.7914 51.5802 28.1633 51.6383 28.5214 51.7481V47.2091C28.1557 47.1543 27.7866 47.1255 27.4169 47.1229H27.2184V50.5745C26.8584 50.478 26.4864 50.4344 26.1139 50.4451Z" fill="#38374A"/>
<path d="M40.5075 43.6799V47.1315C38.2853 47.1272 36.1207 46.4238 34.3205 45.1209V54.1901C34.3109 58.7156 30.6396 62.3791 26.1142 62.3791C24.4335 62.3821 22.7934 61.8636 21.4199 60.8949C23.712 63.3601 27.2792 64.1716 30.4121 62.9405C33.545 61.7095 35.6055 58.6866 35.6062 55.3205V46.2772C37.4125 47.5716 39.5797 48.2658 41.8019 48.2619V43.8179C41.3668 43.8165 40.9331 43.7703 40.5075 43.6799Z" fill="#38374A"/>
<path d="M34.3204 54.1901V45.1209C36.1262 46.4163 38.2937 47.1107 40.5161 47.1056V43.654C39.2032 43.3767 38.0159 42.6801 37.1335 41.6693C36.4286 41.2134 35.8241 40.6186 35.3568 39.9213C34.8895 39.224 34.5691 38.4388 34.4153 37.6136H31.1535V55.4758C31.0883 57.0695 30.0209 58.4469 28.494 58.9079C26.9671 59.3688 25.3158 58.8122 24.3796 57.5209C22.8591 56.7202 22.0787 54.9872 22.4868 53.3179C22.895 51.6485 24.3869 50.4712 26.1055 50.4623C26.4801 50.4657 26.8522 50.5238 27.21 50.6349V47.1833C23.9668 47.2382 21.0624 49.2042 19.8064 52.1948C18.5503 55.1854 19.1799 58.6356 21.4112 60.9899C22.7982 61.9266 24.4408 62.4118 26.1141 62.3792C30.6396 62.3792 34.3109 58.7156 34.3204 54.1901Z" fill="#38374A"/>
<path d="M55.9447 62.3899H51.2282V47.0591H46.5207L46.5117 42.8567H61.0489L59.7142 47.0591H55.9447V62.3899ZM94.2986 62.3899H89.5912V47.0591H84.8657L84.8567 42.8567H99.7275L98.3929 47.0591H94.2986V62.3899ZM61.9327 49.0701H66.595V62.3899H61.9687L61.9327 49.0701ZM74.4769 55.9059L73.0971 57.2405V62.3899H68.4437V42.8026H73.0971V51.9018L77.7143 47.3928H83.2695L77.4348 53.0561L83.9729 62.3899H78.8416L74.4769 55.9059ZM123.806 55.9059L122.471 57.2405V62.3899H117.809L117.764 42.8026H122.471V51.9018L127.079 47.3928H132.635L126.8 53.0561L133.293 62.3899H128.162L123.806 55.9059Z" fill="#38374A"/>
<path d="M64.2685 47.5461C65.5635 47.5461 66.6132 46.4963 66.6132 45.2014C66.6132 43.9065 65.5635 42.8567 64.2685 42.8567C62.9736 42.8567 61.9238 43.9065 61.9238 45.2014C61.9238 46.4963 62.9736 47.5461 64.2685 47.5461Z" fill="#38374A"/>
<path d="M99.1327 54.4178C99.1341 50.2574 102.335 46.7976 106.482 46.4729H105.788C101.573 46.7188 98.2803 50.2089 98.2803 54.4314C98.2803 58.6539 101.573 62.144 105.788 62.3899H106.482C102.324 62.0643 99.12 58.5887 99.1327 54.4178Z" fill="#38374A"/>
<path d="M108.295 46.4459H107.592C111.726 46.7874 114.908 50.2425 114.908 54.3908C114.908 58.5392 111.726 61.9943 107.592 62.3358H108.295C112.698 62.3358 116.267 58.7666 116.267 54.3638C116.267 49.961 112.698 46.3918 108.295 46.3918V46.4459Z" fill="#38374A"/>
<path d="M107.033 58.2956C104.891 58.2956 103.155 56.5595 103.155 54.4179C103.155 52.2762 104.891 50.5401 107.033 50.5401C109.174 50.5401 110.91 52.2762 110.91 54.4179C110.905 56.5574 109.172 58.2907 107.033 58.2956ZM107.033 46.4459C102.63 46.4459 99.0605 50.015 99.0605 54.4179C99.0605 58.8207 102.63 62.3899 107.033 62.3899C111.435 62.3899 115.005 58.8207 115.005 54.4179C115.005 52.3036 114.165 50.2758 112.67 48.7808C111.175 47.2858 109.147 46.4459 107.033 46.4459Z" fill="#38374A"/>
</svg>
