<svg width="50" height="50" viewBox="0 0 50 50" fill="none" xmlns="http://www.w3.org/2000/svg">
<path d="M34.5837 12.125C33.1595 10.4992 32.3747 8.41132 32.3753 6.25H25.9378V32.0833C25.8882 33.4813 25.298 34.8055 24.2915 35.777C23.285 36.7484 21.9408 37.2915 20.542 37.2917C17.5837 37.2917 15.1253 34.875 15.1253 31.875C15.1253 28.2917 18.5837 25.6042 22.1462 26.7083V20.125C14.9587 19.1667 8.66699 24.75 8.66699 31.875C8.66699 38.8125 14.417 43.75 20.5212 43.75C27.0628 43.75 32.3753 38.4375 32.3753 31.875V18.7708C34.9857 20.6455 38.1198 21.6513 41.3337 21.6458V15.2083C41.3337 15.2083 37.417 15.3958 34.5837 12.125Z" fill="url(#paint0_linear_0_398)"/>
<defs>
<linearGradient id="paint0_linear_0_398" x1="2.95033" y1="6.25" x2="81.5546" y2="35.828" gradientUnits="userSpaceOnUse">
<stop stop-color="#8A6DF9"/>
<stop offset="1" stop-color="#B6A3FF"/>
</linearGradient>
</defs>
</svg>
