<svg width="201" height="100" viewBox="0 0 201 100" fill="none" xmlns="http://www.w3.org/2000/svg">
<path d="M169.288 55.5383C169.265 55.5433 169.242 55.5417 169.218 55.545L169.338 55.5283C169.322 55.53 169.305 55.5383 169.288 55.5417V55.5383ZM88.585 61.205C88.5898 61.5817 88.5171 61.9554 88.3714 62.3029C88.2258 62.6504 88.0103 62.9643 87.7383 63.225C87.4754 63.4961 87.1599 63.7106 86.8111 63.8553C86.4623 64 86.0876 64.072 85.71 64.0667H80.015C78.8858 64.0841 77.765 63.8704 76.7215 63.4387C75.6779 63.0071 74.7336 62.3666 73.9467 61.5567C72.2667 59.8817 71.4467 57.8667 71.4467 55.5067V44.035C71.4467 43.2267 71.725 42.5483 72.285 41.9967C72.845 41.445 73.5283 41.1717 74.335 41.1717C74.7104 41.1662 75.0829 41.2381 75.4293 41.3829C75.7757 41.5277 76.0885 41.7423 76.3483 42.0133C76.9083 42.5733 77.19 43.2467 77.19 44.0333V48.1883H85.2767C86.01 48.1883 86.64 48.4483 87.165 48.9683C87.69 49.4883 87.9517 50.1117 87.9517 50.8417C87.9564 51.1909 87.8892 51.5374 87.7545 51.8597C87.6198 52.1819 87.4202 52.473 87.1683 52.715C86.9237 52.966 86.6306 53.1645 86.3069 53.2986C85.9831 53.4327 85.6354 53.4995 85.285 53.495H77.19V55.505C77.19 56.2933 77.465 56.9633 78.0183 57.515C78.5717 58.0667 79.2417 58.3417 80.0317 58.3417H85.6983C86.4867 58.3417 87.165 58.625 87.7267 59.185C87.9986 59.4457 88.2141 59.7596 88.3598 60.1071C88.5054 60.4546 88.5781 60.8283 88.5733 61.205H88.585ZM155.112 61.205C155.117 61.5816 155.044 61.9553 154.899 62.3027C154.754 62.6502 154.538 62.9641 154.267 63.225C154.004 63.4959 153.689 63.7104 153.34 63.8551C152.992 63.9998 152.617 64.0718 152.24 64.0667H149.66C148.531 64.0843 147.409 63.8707 146.366 63.439C145.322 63.0074 144.377 62.3668 143.59 61.5567C142.779 60.7742 142.137 59.8335 141.704 58.7928C141.271 57.7521 141.056 56.6337 141.073 55.5067V44.035C141.073 43.2267 141.352 42.5483 141.912 41.9967C142.472 41.445 143.153 41.1717 143.962 41.1717C144.337 41.1662 144.71 41.2381 145.056 41.3829C145.402 41.5277 145.715 41.7423 145.975 42.0133C146.246 42.2747 146.46 42.5888 146.605 42.9362C146.749 43.2837 146.821 43.6571 146.815 44.0333V48.1883H151.803C152.154 48.1834 152.503 48.2499 152.827 48.3841C153.151 48.5182 153.445 48.717 153.69 48.9683C154.215 49.4883 154.477 50.1117 154.477 50.8417C154.481 51.1909 154.414 51.5374 154.279 51.8597C154.145 52.1819 153.945 52.473 153.693 52.715C153.449 52.966 153.156 53.1645 152.832 53.2986C152.508 53.4327 152.16 53.4995 151.81 53.495H146.815V55.505C146.815 56.2933 147.09 56.9633 147.643 57.515C148.197 58.0667 148.867 58.3417 149.657 58.3417H152.24C153.028 58.3417 153.707 58.625 154.268 59.185C154.54 59.4459 154.755 59.7598 154.901 60.1073C155.046 60.4548 155.117 60.8284 155.112 61.205ZM140.112 61.205C140.112 61.9883 139.828 62.6633 139.267 63.225C139.004 63.4962 138.688 63.7107 138.339 63.8554C137.991 64.0002 137.616 64.0721 137.238 64.0667H134.658C132.292 64.0667 130.27 63.23 128.592 61.5567C127.78 60.7745 127.137 59.8339 126.704 58.7932C126.27 57.7525 126.055 56.6339 126.072 55.5067V44.035C126.063 43.6558 126.133 43.279 126.278 42.9282C126.422 42.5774 126.637 42.2602 126.91 41.9967C127.47 41.4467 128.153 41.1717 128.96 41.1717C129.335 41.1662 129.708 41.2381 130.054 41.3829C130.401 41.5277 130.714 41.7423 130.973 42.0133C131.533 42.5733 131.815 43.2467 131.815 44.0333V48.1883H136.802C137.535 48.1883 138.165 48.4483 138.69 48.9683C138.943 49.2095 139.143 49.5005 139.278 49.8229C139.414 50.1453 139.48 50.4921 139.475 50.8417C139.48 51.1909 139.413 51.5374 139.278 51.8597C139.143 52.1819 138.944 52.473 138.692 52.715C138.17 53.215 137.525 53.495 136.812 53.495H131.798V55.505C131.798 56.2933 132.073 56.9633 132.627 57.515C133.18 58.0667 133.85 58.3417 134.64 58.3417H137.223C138.012 58.3417 138.69 58.625 139.252 59.185C139.523 59.4459 139.739 59.7598 139.884 60.1073C140.029 60.4548 140.102 60.8284 140.097 61.205H140.112ZM116.282 56.0583C116.282 58.2667 115.498 60.1517 113.925 61.7183C113.19 62.4766 112.307 63.0761 111.331 63.48C110.355 63.8839 109.306 64.0836 108.25 64.0667C106.227 64.0667 104.445 63.4 102.905 62.0167C101.462 63.3544 99.5609 64.0876 97.5933 64.065C96.537 64.0811 95.4886 63.8812 94.5124 63.4773C93.5362 63.0735 92.6529 62.4743 91.9167 61.7167C91.1575 60.9848 90.5567 60.1048 90.1516 59.1311C89.7465 58.1575 89.5457 57.1111 89.5617 56.0567V50.465C89.5532 50.1097 89.6191 49.7565 89.7551 49.4282C89.8912 49.0998 90.0944 48.8035 90.3517 48.5583C90.8767 48.0583 91.51 47.785 92.2467 47.785C92.5984 47.779 92.9477 47.8444 93.2735 47.9774C93.5992 48.1103 93.8946 48.3079 94.1417 48.5583C94.6683 49.0583 94.9317 49.725 94.9317 50.4667V56.0617C94.9254 56.4109 94.991 56.7576 95.1243 57.0805C95.2576 57.4033 95.4558 57.6953 95.7067 57.9383C95.9526 58.187 96.2461 58.3835 96.5697 58.5161C96.8933 58.6487 97.2403 58.7146 97.59 58.71C98.3067 58.71 98.9233 58.455 99.4233 57.9383C99.6738 57.6951 99.8717 57.4031 100.005 57.0803C100.138 56.7574 100.203 56.4108 100.197 56.0617V50.495C100.197 49.7617 100.463 49.125 100.988 48.5883C101.238 48.3283 101.538 48.1225 101.871 47.984C102.204 47.8455 102.561 47.7772 102.922 47.7833C103.275 47.7786 103.626 47.8461 103.953 47.9816C104.28 48.1172 104.575 48.3179 104.822 48.5717C105.35 49.0983 105.613 49.7283 105.613 50.465V56.06C105.6 56.408 105.658 56.7551 105.783 57.0799C105.909 57.4047 106.1 57.7003 106.345 57.9484C106.589 58.1965 106.882 58.392 107.204 58.5227C107.527 58.6534 107.873 58.7166 108.222 58.7083C108.96 58.7083 109.588 58.4533 110.105 57.9367C110.356 57.6936 110.554 57.4016 110.687 57.0788C110.821 56.756 110.886 56.4092 110.88 56.06V50.465C110.88 49.7283 111.143 49.0983 111.67 48.5717C111.915 48.3178 112.21 48.117 112.536 47.9814C112.862 47.8458 113.212 47.7784 113.565 47.7833C114.303 47.7833 114.935 48.0467 115.462 48.5717C115.988 49.0967 116.25 49.7267 116.25 50.4633V56.055L116.282 56.0583ZM124.04 43.3917C124.045 43.7686 123.973 44.1425 123.828 44.4903C123.682 44.8381 123.467 45.1523 123.195 45.4133C122.932 45.6843 122.617 45.8987 122.269 46.0434C121.92 46.1882 121.546 46.2602 121.168 46.255C120.791 46.2596 120.416 46.1874 120.068 46.0427C119.719 45.898 119.403 45.6839 119.14 45.4133C118.869 45.1522 118.654 44.8382 118.509 44.4907C118.364 44.1433 118.292 43.7698 118.297 43.3933C118.297 42.6067 118.58 41.9333 119.14 41.3733C119.403 41.1022 119.718 40.8877 120.067 40.7429C120.416 40.5982 120.791 40.5263 121.168 40.5317C121.546 40.5263 121.92 40.5982 122.269 40.743C122.617 40.8877 122.932 41.1022 123.195 41.3733C123.758 41.9333 124.04 42.605 124.04 43.3917ZM124.04 61.1867C124.044 61.5637 123.972 61.9377 123.826 62.2856C123.681 62.6336 123.466 62.9481 123.195 63.21C122.932 63.4811 122.617 63.6956 122.269 63.8404C121.92 63.9851 121.546 64.057 121.168 64.0517C120.38 64.0517 119.705 63.7717 119.14 63.21C118.869 62.9483 118.654 62.6337 118.509 62.2857C118.364 61.9377 118.291 61.5637 118.297 61.1867V50.6367C118.297 49.85 118.58 49.175 119.14 48.615C119.403 48.3435 119.718 48.1287 120.067 47.9837C120.416 47.8386 120.791 47.7665 121.168 47.7717C121.546 47.7665 121.92 47.8387 122.269 47.9837C122.617 48.1288 122.933 48.3436 123.195 48.615C123.758 49.175 124.04 49.8483 124.04 50.6367V61.1867ZM189.265 50.825C189.265 51.5533 189.003 52.1783 188.478 52.6983C188.235 52.9499 187.942 53.1488 187.618 53.283C187.295 53.4171 186.947 53.4836 186.597 53.4783H182.677C181.943 53.4783 181.322 53.735 180.81 54.245C180.561 54.4858 180.364 54.7754 180.231 55.0957C180.099 55.416 180.034 55.7601 180.04 56.1067V61.39C180.04 62.12 179.78 62.7467 179.257 63.2683C179.014 63.5201 178.721 63.7194 178.398 63.8541C178.075 63.9888 177.728 64.0561 177.378 64.0517C176.65 64.0517 176.02 63.7917 175.498 63.2683C175.246 63.0261 175.047 62.7346 174.912 62.4121C174.777 62.0896 174.71 61.7428 174.715 61.3933V56.11C174.699 55.065 174.898 54.0278 175.299 53.0628C175.701 52.0978 176.296 51.2255 177.048 50.5C177.778 49.7482 178.654 49.1537 179.622 48.7531C180.591 48.3524 181.631 48.1539 182.678 48.17H186.595C186.946 48.1649 187.294 48.2318 187.618 48.3665C187.942 48.5013 188.235 48.701 188.478 48.9533C188.732 49.1939 188.932 49.4845 189.067 49.8067C189.202 50.129 189.268 50.4757 189.262 50.825H189.265ZM164.103 64.05C161.843 64.05 159.713 63.19 158.033 61.4733C156.353 59.7567 155.708 57.885 155.708 55.4633C155.708 55.4633 155.545 47.7667 164.252 47.7667C171.063 47.7667 173.135 52.55 173.135 54.9133C173.135 56.79 172.277 57.4567 170.322 57.4567H161.615C161.615 57.4567 161.282 59.4483 165.282 59.4483H170.248C170.55 59.4483 170.849 59.5078 171.129 59.6234C171.408 59.739 171.661 59.9084 171.875 60.122C172.088 60.3356 172.258 60.5891 172.373 60.8682C172.489 61.1472 172.548 61.4463 172.548 61.7483C172.548 62.0504 172.489 62.3495 172.373 62.6285C172.258 62.9076 172.088 63.1611 171.875 63.3747C171.661 63.5883 171.408 63.7577 171.129 63.8733C170.849 63.9888 170.55 64.0483 170.248 64.0483H164.115L164.103 64.05ZM161.673 53.825H167.39C167.39 51.9467 164.547 51.9467 164.547 51.9467C164.547 51.9467 161.673 51.9467 161.673 53.825ZM63.4817 47.0617C61.7033 47.365 59.1267 47.0483 57.76 46.4783C60.5983 46.245 62.52 44.955 63.26 43.2033C62.2367 43.8333 59.06 44.5367 57.31 43.865L57.03 42.705C55.6967 37.795 51.1183 33.8383 46.3267 34.3167L47.5017 33.88C48.0267 33.6917 51.1233 33.1867 50.635 32.0967C50.2233 31.1333 46.44 32.82 45.7283 33.0417C46.6683 32.7083 48.225 32.0817 48.39 31C46.9181 31.218 45.5443 31.869 44.4433 32.87C44.84 32.445 45.1383 31.9283 45.2017 31.37C41.3583 33.8283 39.1133 38.78 37.2983 43.5867C35.8717 42.2033 34.605 41.1117 33.4717 40.5033C30.2917 38.7983 26.4717 37.0167 20.5167 34.7967C20.35 36.775 21.4933 39.405 24.85 41.1533C24.1267 41.0533 22.8033 41.2733 21.7467 41.525C22.1767 43.7917 23.585 45.6583 27.4 46.5583C25.6567 46.675 24.755 47.0583 23.94 47.925C24.7333 49.5033 26.6733 51.3583 30.1567 50.975C26.28 52.6483 28.5733 55.745 31.73 55.2833C26.3517 60.8467 17.87 60.45 13 55.7833C25.7133 73.1283 53.355 66.04 57.4717 49.3333C60.5617 49.3583 62.3717 48.2633 63.4967 47.0567L63.4817 47.0617Z" fill="#38374A"/>
</svg>
