<svg width="150" height="100" viewBox="0 0 150 100" fill="none" xmlns="http://www.w3.org/2000/svg">
<path d="M74.7993 58.0277C75.0009 57.502 75.1019 56.6424 75.1019 55.4492V50.4231C75.1019 49.2652 75.0009 48.4189 74.7993 47.8837C74.5976 47.3487 74.2423 47.0811 73.7339 47.0811C73.2425 47.0811 72.8956 47.3487 72.6941 47.8837C72.4923 48.4189 72.3915 49.2652 72.3915 50.4231V55.4492C72.3915 56.6419 72.4878 57.5018 72.6811 58.0277C72.8738 58.5543 73.2245 58.8172 73.7336 58.8172C74.2423 58.8172 74.5976 58.5543 74.7993 58.0277ZM70.7208 60.5544C69.9922 60.0637 69.4745 59.3002 69.168 58.2647C68.8609 57.2301 68.7075 55.8527 68.7075 54.1334V51.7912C68.7075 50.0546 68.8827 48.6597 69.2337 47.6072C69.5844 46.5547 70.1324 45.7873 70.8784 45.3047C71.6241 44.8224 72.6021 44.581 73.8127 44.581C75.0056 44.581 75.9616 44.8268 76.6811 45.3177C77.4001 45.8089 77.9265 46.5767 78.26 47.6204C78.593 48.6643 78.7598 50.0546 78.7598 51.7914V54.1336C78.7598 55.8527 78.5976 57.2346 78.2732 58.2781C77.9483 59.322 77.4219 60.0853 76.694 60.5674C75.9659 61.0499 74.9793 61.2912 73.7339 61.2912C72.4526 61.2912 71.4484 61.0454 70.7208 60.5544ZM127.073 47.3823C126.889 47.6104 126.766 47.9834 126.705 48.5007C126.643 49.0182 126.613 49.8034 126.613 50.8559V52.0138H129.271V50.8557C129.271 49.8209 129.235 49.0357 129.166 48.5005C129.095 47.9655 128.968 47.5886 128.784 47.3691C128.6 47.1497 128.315 47.0397 127.929 47.0397C127.543 47.0397 127.258 47.1542 127.073 47.3821V47.3823ZM126.613 54.1718V54.9876C126.613 56.0229 126.643 56.7991 126.705 57.3164C126.766 57.8342 126.893 58.2115 127.087 58.4482C127.28 58.6847 127.578 58.8035 127.981 58.8035C128.525 58.8035 128.898 58.593 129.1 58.1718C129.301 57.7508 129.411 57.049 129.429 56.0663L132.56 56.2507C132.578 56.3916 132.587 56.5845 132.587 56.8296C132.587 58.321 132.179 59.4353 131.363 60.1719C130.547 60.9084 129.393 61.2771 127.902 61.2771C126.113 61.2771 124.859 60.7159 124.139 59.5928C123.42 58.4705 123.06 56.7335 123.06 54.3824V51.5665C123.06 49.1455 123.433 47.3782 124.179 46.2637C124.924 45.1498 126.201 44.5928 128.008 44.5928C129.253 44.5928 130.209 44.8209 130.876 45.277C131.543 45.7337 132.012 46.4441 132.284 47.4087C132.556 48.3735 132.692 49.707 132.692 51.4086V54.1718H126.613ZM61.8778 53.8697L57.7461 38.9485H61.3512L62.7983 45.7116C63.1671 47.3789 63.439 48.7999 63.6141 49.9749H63.7196C63.8422 49.133 64.1144 47.7208 64.5354 45.738L66.0354 38.9485H69.6405L65.4566 53.8697V61.0281H61.8776V53.8697M90.4854 44.8967V61.0281H87.6432L87.3274 59.0544H87.2486C86.4764 60.5456 85.3184 61.2909 83.7748 61.2909C82.7047 61.2909 81.9153 60.9404 81.4064 60.2384C80.8975 59.5371 80.6433 58.4403 80.6433 56.9489V44.8967H84.2748V56.7387C84.2748 57.4584 84.3538 57.9714 84.5117 58.2781C84.6696 58.5855 84.9327 58.7386 85.3012 58.7386C85.617 58.7386 85.9196 58.6425 86.209 58.4489C86.4984 58.256 86.7133 58.0109 86.8537 57.7126V44.8965L90.4854 44.8967ZM109.113 44.8967V61.0281H106.271L105.955 59.0544H105.876C105.104 60.5456 103.946 61.2909 102.402 61.2909C101.332 61.2909 100.543 60.9404 100.034 60.2384C99.5249 59.5371 99.2709 58.4403 99.2709 56.9489V44.8967H102.902V56.7387C102.902 57.4584 102.981 57.9714 103.139 58.2781C103.297 58.5855 103.56 58.7386 103.929 58.7386C104.245 58.7386 104.547 58.6425 104.836 58.4489C105.126 58.256 105.341 58.0109 105.481 57.7126V44.8965H109.113" fill="#38374A"/>
<path d="M100.354 41.8702H96.7483V61.0281H93.1959V41.87H89.5908V38.9492H100.354V41.8702ZM117.804 54.0553C117.804 55.2307 117.755 56.1519 117.658 56.8182C117.562 57.4854 117.4 57.9589 117.172 58.2392C116.943 58.52 116.636 58.6604 116.251 58.6604C115.961 58.6629 115.675 58.5903 115.422 58.4498C115.167 58.3094 114.961 58.0991 114.803 57.8183V48.6602C114.926 48.2217 115.136 47.8621 115.435 47.5811C115.733 47.301 116.057 47.1603 116.408 47.1603C116.777 47.1603 117.062 47.3051 117.264 47.5943C117.465 47.8839 117.606 48.3708 117.685 49.055C117.764 49.7391 117.804 50.7128 117.804 51.9759V54.0553ZM121.132 47.4752C120.913 46.4579 120.557 45.7212 120.066 45.2648C119.575 44.8088 118.899 44.5807 118.04 44.5807C117.373 44.5807 116.751 44.7693 116.172 45.1464C115.601 45.5147 115.138 46.0278 114.83 46.6333H114.803L114.803 38.1331H111.303V61.0276H114.303L114.672 59.5017H114.75C115.031 60.0453 115.452 60.4751 116.014 60.7909C116.575 61.1067 117.198 61.2646 117.882 61.2646C119.11 61.2646 120.014 60.6987 120.593 59.5673C121.171 58.4355 121.461 56.6685 121.461 54.2647V51.7121C121.461 49.9054 121.351 48.493 121.132 47.4752ZM53.3372 41.1426C53.1275 40.3628 52.7166 39.6519 52.1456 39.081C51.5747 38.51 50.8637 38.0991 50.084 37.8894C47.214 37.1204 35.7069 37.1204 35.7069 37.1204C35.7069 37.1204 24.1996 37.1204 21.3298 37.8894C20.5501 38.0991 19.8392 38.51 19.2682 39.081C18.6973 39.6519 18.2864 40.3629 18.0766 41.1426C17.3076 44.0125 17.3076 49.9999 17.3076 49.9999C17.3076 49.9999 17.3076 55.9874 18.0766 58.8569C18.2863 59.6367 18.6973 60.3476 19.2682 60.9186C19.8392 61.4895 20.5501 61.9004 21.3298 62.1101C24.1996 62.8794 35.7069 62.8794 35.7069 62.8794C35.7069 62.8794 47.214 62.8794 50.084 62.1101C50.8637 61.9004 51.5747 61.4895 52.1456 60.9186C52.7166 60.3476 53.1275 59.6367 53.3372 58.8569C54.106 55.9872 54.106 49.9996 54.106 49.9996C54.106 49.9996 54.106 44.0125 53.3372 41.1426Z" fill="#38374A"/>
<path d="M32.0273 55.5197V44.4801L41.5875 49.9999L32.0273 55.5197Z" fill="black"/>
</svg>
