<svg width="50" height="50" viewBox="0 0 50 50" fill="none" xmlns="http://www.w3.org/2000/svg">
<path d="M47.9946 13.3043C47.436 11.2051 45.8161 9.57444 43.7494 9.01214C40.007 8.00002 25 8 25 8C25 8 9.99302 8.00002 6.25058 9.01214C4.18386 9.57444 2.564 11.2238 2.00543 13.3043C1 17.0904 1 25 1 25C1 25 1 32.9096 2.00543 36.6957C2.564 38.795 4.18386 40.4256 6.25058 40.9879C9.99302 42 25 42 25 42C25 42 40.007 42 43.7494 40.9879C45.8161 40.4256 47.436 38.7762 47.9946 36.6957C49 32.9096 49 25 49 25C49 25 49 17.0904 47.9946 13.3043ZM20.1032 32.1786V17.8214L32.6338 25L20.1032 32.1786Z" fill="url(#paint0_linear_0_393)"/>
<defs>
<linearGradient id="paint0_linear_0_393" x1="-7.4" y1="8" x2="88.711" y2="66.6117" gradientUnits="userSpaceOnUse">
<stop stop-color="#8A6DF9"/>
<stop offset="1" stop-color="#B6A3FF"/>
</linearGradient>
</defs>
</svg>
